<?xml version="1.0" standalone="no"?>
<!DOCTYPE svg PUBLIC "-//W3C//DTD SVG 20010904//EN"
 "http://www.w3.org/TR/2001/REC-SVG-20010904/DTD/svg10.dtd">
<svg version="1.0" xmlns="http://www.w3.org/2000/svg"
 width="128.000000pt" height="128.000000pt" viewBox="0 0 128.000000 128.000000"
 preserveAspectRatio="xMidYMid meet">
<metadata>
Created by potrace 1.14, written by Peter Selinger 2001-2017
</metadata>
<g transform="translate(0.000000,128.000000) scale(0.100000,-0.100000)"
fill="#000000" stroke="none">
<path d="M502 1244 c-293 -78 -479 -314 -480 -608 -1 -235 144 -461 358 -557
132 -60 304 -73 435 -33 194 60 344 206 412 401 24 68 27 93 27 193 0 65 -5
132 -12 155 -72 226 -212 370 -432 442 -64 21 -242 25 -308 7z m186 -262 c3
-39 5 -41 52 -58 27 -10 62 -27 76 -39 l28 -22 -38 -40 -37 -41 -46 25 c-87
49 -186 25 -169 -41 8 -33 50 -59 136 -85 79 -24 126 -54 157 -100 24 -36 30
-92 14 -134 -18 -48 -89 -102 -143 -110 -18 -3 -24 -11 -26 -40 -2 -21 -9 -37
-15 -38 -65 -4 -87 -3 -88 4 -1 4 -3 12 -4 17 -1 6 -3 20 -4 33 -1 17 -12 26
-49 40 -48 16 -102 52 -102 65 0 4 18 22 40 40 l40 33 34 -21 c19 -11 58 -23
86 -27 44 -5 54 -3 75 17 14 13 25 31 25 40 0 26 -35 57 -87 75 -178 65 -233
112 -233 200 0 78 62 148 141 161 34 6 37 8 32 36 -6 41 8 53 59 52 43 -1 43
-1 46 -42z"/>
</g>
</svg>
